<svg xmlns="http://www.w3.org/2000/svg" width="450" height="120" viewBox="0 0 450 120" version="1.1"><path d="M 423 31 C 420.450 33.550, 420.487 34.293, 423.329 37.596 C 425.202 39.774, 426.186 40.170, 428.363 39.624 C 432.227 38.654, 433.770 34.824, 431.619 31.541 C 429.585 28.437, 425.800 28.200, 423 31 M 429 34.559 C 429 35.416, 429.450 35.840, 430 35.500 C 430.550 35.160, 431 34.459, 431 33.941 C 431 33.423, 430.550 33, 430 33 C 429.450 33, 429 33.702, 429 34.559 M 38.456 36.798 C 38.942 39.012, 37.181 43.499, 30.018 58.298 C 25.040 68.584, 20.524 77, 19.983 77 C 19.442 77, 19 77.450, 19 78 C 19 79.262, 33.670 79.343, 34.447 78.085 C 34.758 77.582, 34.464 76.988, 33.794 76.765 C 32.840 76.447, 32.847 75.453, 33.828 72.179 L 35.080 68 45.014 68 L 54.949 68 56.474 70.950 C 58.326 74.532, 58.420 76.683, 56.750 77.280 C 56.063 77.525, 55.737 77.988, 56.027 78.307 C 56.673 79.018, 101.003 79.701, 100.999 79 C 100.997 78.725, 105.910 78.640, 111.915 78.811 C 124.675 79.174, 130.319 77.970, 132.669 74.382 C 134.802 71.127, 134.798 66.539, 132.661 64.178 C 131.142 62.499, 131.128 62.050, 132.512 59.276 C 134.326 55.641, 133.334 52.048, 129.841 49.601 C 128.041 48.340, 124.894 48, 115.027 47.999 L 102.500 47.997 102.824 62.499 C 103.044 72.365, 102.804 77, 102.074 77 C 101.483 77, 101 75.763, 101.001 74.250 L 101.002 71.500 91.501 71.847 L 82 72.193 82 61.097 C 82 54.366, 82.393 50, 83 50 C 83.550 50, 84 49.550, 84 49 C 84 48.444, 81.333 48, 78 48 C 72.099 48, 70.988 48.588, 73.032 50.632 C 74.387 51.987, 73.881 76.524, 72.500 76.436 C 71.950 76.401, 67.076 67.685, 61.669 57.067 C 54.626 43.235, 52.145 37.455, 52.919 36.681 C 55.108 34.492, 53.822 34, 45.921 34 L 37.841 34 38.456 36.798 M 257.500 36.680 C 246.816 39.074, 240.367 43.853, 237.424 51.560 C 235.224 57.321, 235.924 66.071, 239.003 71.284 C 245.837 82.856, 264.013 85.998, 280.498 78.458 C 286.209 75.846, 287.672 74.534, 286.016 73.510 C 284.702 72.698, 284.688 62.311, 286 61.500 C 288.907 59.703, 285.952 59, 275.500 59 C 268.500 59, 264 58.609, 264 58 C 264 57.450, 263.550 57, 263 57 C 262.450 57, 262 59.475, 262 62.500 C 262 67.591, 263.011 69.410, 264.500 67 C 264.840 66.450, 267.566 66, 270.559 66 C 275.675 66, 276 66.147, 276 68.465 C 276 71.638, 273.278 73.074, 266.012 73.733 C 258.984 74.370, 254.238 72.902, 250.415 68.909 C 247.797 66.174, 247.502 65.198, 247.521 59.336 C 247.540 53.114, 247.712 52.652, 251.190 49.465 C 253.294 47.536, 256.456 45.818, 258.659 45.404 C 263.798 44.440, 273.074 46.453, 275.160 48.985 C 276.073 50.093, 277.234 51, 277.739 51 C 278.713 51, 283.635 41.218, 282.920 40.705 C 282.689 40.540, 278.612 39.414, 273.859 38.203 C 265.528 36.079, 261.752 35.727, 257.500 36.680 M 316 42 C 316 42.618, 310.750 43, 302.250 43 L 288.500 43 288.500 58 L 288.500 73 302.191 73 C 310.386 73, 316.134 73.408, 316.510 74.016 C 317.706 75.952, 319 73.865, 319 70 C 319 66.135, 317.706 64.048, 316.510 65.984 C 316.160 66.549, 311.919 67, 306.941 67 L 298 67 298 63.884 L 298 60.767 304.500 61.181 L 311 61.595 311 57.500 L 311 53.405 304.500 53.819 C 298.051 54.230, 298 54.213, 298 51.616 C 298 49.001, 298.004 49, 306.441 49 C 311.084 49, 315.160 49.450, 315.500 50 C 316.947 52.342, 318 50.657, 318 46 C 318 43.250, 317.550 41, 317 41 C 316.450 41, 316 41.450, 316 42 M 321.500 58 L 321.500 73 326 73 L 330.500 73 330.166 64.250 L 329.832 55.500 337.431 62.990 C 341.610 67.109, 344.812 71.047, 344.546 71.740 C 344.174 72.710, 346.816 73, 356.031 73 C 362.618 73, 368 72.588, 368 72.083 C 368 71.579, 367.485 70.995, 366.857 70.786 C 366.009 70.503, 366.024 69.824, 366.916 68.158 C 368.006 66.121, 368.742 65.939, 374.809 66.206 L 381.500 66.500 381.353 69.750 L 381.205 73 387.603 73 C 394.142 73, 395.055 72.564, 392.611 70.610 C 390.046 68.560, 379.731 47.138, 380.286 45.016 C 380.773 43.153, 380.337 43, 374.545 43 C 368.553 43, 368.297 43.101, 368.715 45.289 C 369.275 48.220, 358.241 71, 356.260 71 C 355.097 71, 354.906 68.540, 355.174 56.999 L 355.500 42.997 350.050 42.999 C 345.811 43, 344.867 43.267, 345.800 44.200 C 346.521 44.921, 347 48.406, 347 52.925 L 347 60.450 339.485 52.985 C 335.352 48.880, 332.188 44.953, 332.454 44.260 C 332.808 43.337, 331.407 43, 327.219 43 L 321.500 43 321.500 58 M 390.832 54.249 C 391.203 66.830, 392.165 69.828, 396.509 71.928 C 400.323 73.771, 411.538 73.906, 415.680 72.158 C 420.368 70.179, 421.775 66.184, 422.164 53.749 L 422.500 42.998 417.050 42.999 C 412.811 43, 411.867 43.267, 412.800 44.200 C 413.560 44.960, 414 48.787, 414 54.643 C 414 63.061, 413.802 64.026, 411.777 65.443 C 410.555 66.299, 408.180 67, 406.500 67 C 404.820 67, 402.445 66.299, 401.223 65.443 C 399.198 64.026, 399 63.061, 399 54.643 C 399 48.787, 399.440 44.960, 400.200 44.200 C 401.133 43.267, 400.189 43, 395.950 42.999 L 390.500 42.998 390.832 54.249 M 42.672 52.971 C 41.202 56.360, 40 59.327, 40 59.566 C 40 59.805, 42.475 60, 45.500 60 C 48.525 60, 51 59.836, 51 59.636 C 51 59.436, 49.727 56.468, 48.172 53.041 L 45.344 46.811 42.672 52.971 M 150.250 47.748 C 137.355 48.026, 134.093 48.703, 137 50.500 C 138.457 51.400, 138.305 75.295, 136.833 76.767 C 135.017 78.583, 137.052 78.896, 152.751 79.212 L 167.003 79.500 167.003 75.500 L 167.002 71.500 156.501 71.841 L 146 72.182 146 69.091 L 146 66 152 66 C 155.556 66, 158 66.431, 158 67.059 C 158 67.641, 158.450 67.840, 159 67.500 C 159.550 67.160, 160 65.135, 160 63 C 160 60.865, 159.550 58.840, 159 58.500 C 158.450 58.160, 158 58.359, 158 58.941 C 158 59.569, 155.556 60, 152 60 C 146.217 60, 146 59.907, 146 57.420 L 146 54.841 156.250 55.121 L 166.500 55.401 166.807 51.201 C 167.029 48.171, 166.751 47.061, 165.807 47.220 C 165.088 47.341, 158.088 47.579, 150.250 47.748 M 201.936 51.500 C 201.885 54.767, 201.715 55.107, 201.008 53.357 C 199.158 48.772, 196.460 48, 182.277 48 C 174.092 48, 169 48.384, 169 49 C 169 49.550, 169.450 50, 170 50 C 171.356 50, 171.340 75.672, 169.984 76.510 C 167.892 77.803, 170.278 79, 174.944 79 L 179.770 79 179.248 72.500 L 178.726 66 181.694 66 C 184.069 66, 185.311 66.906, 187.922 70.541 C 189.715 73.038, 190.940 75.715, 190.642 76.490 C 189.937 78.328, 192.696 79.160, 198.501 78.859 C 203.184 78.617, 205.082 77.629, 202.655 76.698 C 201.921 76.416, 199.697 73.925, 197.712 71.162 L 194.102 66.137 197.414 64.183 C 199.407 63.007, 201.011 61.093, 201.442 59.375 C 202.372 55.669, 203.510 55.034, 209.250 55.015 L 214 55 214 65.441 C 214 71.435, 213.567 76.150, 212.984 76.510 C 210.913 77.790, 213.258 79, 217.809 79 L 222.500 79 222.142 66.901 L 221.784 54.802 227.393 55.151 L 233.003 55.500 233.001 51.500 L 232.999 47.500 217.499 47.500 L 201.999 47.500 201.936 51.500 M 372.306 57 C 371.209 59.906, 371.265 60, 374.087 60 C 377.241 60, 377.752 58.574, 375.608 55.750 C 373.840 53.421, 373.626 53.502, 372.306 57 M 111 57.046 C 111 58.934, 111.520 59.069, 117.740 58.796 C 123.223 58.555, 124.542 58.174, 124.813 56.750 C 125.105 55.217, 124.270 55, 118.073 55 C 111.614 55, 111 55.178, 111 57.046 M 179 57.500 C 179 59.929, 179.200 60, 186 60 C 192.800 60, 193 59.929, 193 57.500 C 193 55.071, 192.800 55, 186 55 C 179.200 55, 179 55.071, 179 57.500 M 111 69 L 111 72.088 118.250 71.794 C 125.238 71.511, 125.500 71.410, 125.500 69 C 125.500 66.590, 125.238 66.489, 118.250 66.206 L 111 65.912 111 69 M 274.667 98.667 C 273.357 99.976, 274.031 102.861, 275.750 103.311 C 277.417 103.746, 277.417 103.774, 275.750 103.884 C 274.788 103.948, 274 104.702, 274 105.560 C 274 106.752, 274.886 107.047, 277.750 106.810 C 280.762 106.561, 281.563 106.057, 281.820 104.250 C 282.012 102.897, 281.613 101.994, 280.820 101.985 C 279.770 101.973, 279.782 101.791, 280.878 101.096 C 281.636 100.616, 281.947 99.723, 281.569 99.112 C 280.825 97.908, 275.753 97.580, 274.667 98.667 M 301 99.378 C 301 100.135, 301.675 101.315, 302.500 102 C 303.325 102.685, 304 104.090, 304 105.122 C 304 108.055, 306.717 107.324, 307.245 104.250 C 307.505 102.737, 308.054 100.713, 308.466 99.750 C 309.345 97.693, 306.537 97.206, 305.583 99.250 C 305.117 100.250, 304.883 100.250, 304.417 99.250 C 303.628 97.559, 301 97.658, 301 99.378 M 328.667 98.667 C 327.307 100.026, 328.067 102.092, 330.250 102.969 L 332.500 103.873 330.167 103.937 C 326.778 104.029, 328.036 106.438, 331.662 106.801 C 335.348 107.170, 337.874 104.758, 336.074 102.589 C 335.190 101.524, 335.186 101.003, 336.058 100.464 C 336.902 99.943, 336.847 99.518, 335.857 98.890 C 334.242 97.867, 329.610 97.723, 328.667 98.667 M 355 99.500 C 355 100.325, 355.675 101, 356.500 101 C 357.500 101, 358 102, 358 104 C 358 106, 358.500 107, 359.500 107 C 360.500 107, 361 106, 361 104 C 361 102, 361.500 101, 362.500 101 C 363.325 101, 364 100.325, 364 99.500 C 364 98.389, 362.833 98, 359.500 98 C 356.167 98, 355 98.389, 355 99.500 M 383 102.500 L 383 107 387 107 C 389.889 107, 391 106.583, 391 105.500 C 391 104.675, 390.625 104, 390.167 104 C 389.708 104, 389.333 103.325, 389.333 102.500 C 389.333 101.675, 389.708 101, 390.167 101 C 390.625 101, 391 100.325, 391 99.500 C 391 98.417, 389.889 98, 387 98 L 383 98 383 102.500 M 411 102.500 C 411 105.716, 411.404 107, 412.417 107 C 413.196 107, 414.060 106.438, 414.338 105.750 C 414.710 104.827, 414.863 104.859, 414.921 105.872 C 414.985 106.978, 415.291 107.003, 416.500 106 C 417.536 105.140, 418 105.102, 418 105.878 C 418 106.495, 418.675 107, 419.500 107 C 420.611 107, 421 105.833, 421 102.500 C 421 97.463, 418.964 96.331, 416.886 100.213 L 415.702 102.426 414.883 100.213 C 414.433 98.996, 413.375 98, 412.532 98 C 411.383 98, 411 99.125, 411 102.500" stroke="none" fill="#040404" fill-rule="evenodd"/><path d="M 218.450 2.947 C 215.886 5.504, 196.977 9.096, 182.435 9.789 C 168.494 10.453, 167.481 10.634, 167.211 12.518 C 167.052 13.628, 169.359 19.928, 172.337 26.518 C 175.315 33.108, 178.063 39.513, 178.443 40.750 L 179.135 43 208.817 42.983 L 238.500 42.965 240.918 40.417 C 244.927 36.193, 250.677 33.870, 258.613 33.270 L 265.965 32.714 269.822 24.607 C 271.944 20.148, 273.980 15.284, 274.347 13.797 C 274.955 11.334, 274.725 11.049, 271.757 10.598 C 269.966 10.326, 262.875 9.846, 256 9.531 C 243.655 8.966, 229.373 6.239, 223.800 3.383 C 220.611 1.750, 219.724 1.677, 218.450 2.947 M 232.982 78.854 C 228.594 81.449, 228.079 81.510, 206.503 82 L 184.500 82.500 184.210 90.750 C 184.050 95.287, 184.113 99, 184.349 99 C 184.586 99, 189.217 99.904, 194.640 101.008 C 205.603 103.241, 212.822 105.955, 217.846 109.732 L 221.191 112.248 223.846 110.163 C 228.675 106.370, 237.065 103.048, 247.598 100.759 L 257.994 98.500 257.997 92.361 L 258 86.223 254.297 85.528 C 249.823 84.688, 244.295 81.961, 240.363 78.652 L 237.458 76.208 232.982 78.854" stroke="none" fill="#84143c" fill-rule="evenodd"/></svg>