<svg xmlns="http://www.w3.org/2000/svg" xml:space="preserve" width="1.70666in" height="1.70666in" version="1.1" style="shape-rendering:geometricPrecision; text-rendering:geometricPrecision; image-rendering:optimizeQuality; fill-rule:evenodd; clip-rule:evenodd" viewBox="0 0 1707 1707" xmlns:xlink="http://www.w3.org/1999/xlink">
 <defs>
  <style type="text/css">
   
    .fil0 {fill:black}
   
  </style>
 </defs>
 <g id="Layer_x0020_1">
  <metadata id="CorelCorpID_0Corel-Layer"></metadata>
  <g id="_491730912">
   <g>
    <g>
     <path class="fil0" d="M852 1362c-277,0 -503,-226 -503,-503 0,-277 226,-504 503,-504 278,0 504,227 504,504 0,279 -226,503 -504,503zm0 -958c-251,0 -455,204 -455,455 0,251 204,455 455,455 251,0 455,-204 455,-455 0,-251 -204,-455 -455,-455z" id="id_101" style="fill: rgb(255, 255, 255);"></path>
    </g>
    <g>
     <path class="fil0" d="M765 1131c-4,0 -9,-2 -13,-3 0,0 0,0 0,0 0,0 0,0 0,0 0,0 0,0 0,0 0,0 0,0 0,0 0,0 0,0 0,0 -1,-1 -2,-3 -5,-4l-89 -88 -123 -123c-34,-35 -34,-90 0,-123 34,-34 90,-34 123,0l107 106 281 -284c17,-17 38,-25 61,-25 24,0 45,8 61,25 17,17 27,39 27,62 0,24 -10,45 -27,61l-387 389 0 0c0,0 0,0 0,0l0 0c-1,1 -4,3 -5,4l0 0c0,0 0,0 0,0 0,0 0,0 0,0 0,0 0,0 0,0 0,0 0,0 0,0l0 0c0,0 0,0 0,0l0 0c-3,1 -7,3 -10,3 0,0 0,0 0,0 0,0 0,0 0,0 0,0 0,0 0,0 0,0 0,0 0,0 0,0 0,0 0,0 0,0 0,0 0,0 0,0 0,0 0,0l0 0c0,0 0,0 0,0 0,0 0,0 -1,0l0 0c0,0 0,0 0,0zm-168 -318c-10,0 -21,4 -28,11 -14,14 -14,39 2,54l194 193 370 -370c7,-7 11,-17 11,-27 0,-11 -4,-20 -11,-27 -14,-14 -39,-14 -54,0l-300 301c-9,9 -25,9 -34,0 -2,-2 -3,-3 -4,-5l-118 -119c-7,-8 -18,-11 -28,-11z" id="id_102" style="fill: rgb(255, 255, 255);"></path>
    </g>
    <g>
     <path class="fil0" d="M856 1706c-45,0 -81,-34 -118,-69 -25,-24 -49,-49 -74,-56 -24,-5 -59,3 -92,12 -50,12 -101,24 -144,1 -43,-25 -58,-76 -72,-126 -10,-34 -20,-67 -36,-84 -17,-16 -52,-27 -85,-37 -47,-14 -97,-28 -119,-68 -22,-40 -10,-89 3,-137 8,-33 18,-67 11,-90 -6,-23 -31,-47 -54,-72 -35,-35 -75,-75 -70,-127 -5,-50 35,-90 70,-126 23,-23 48,-48 55,-72 6,-22 -3,-57 -11,-90 -13,-47 -26,-97 -3,-136 22,-40 72,-54 119,-68 34,-10 68,-19 85,-37 17,-17 26,-52 36,-84 14,-50 29,-101 72,-126 43,-25 95,-12 144,0 34,8 68,17 92,11 24,-5 50,-30 75,-55 36,-35 72,-70 118,-70 46,0 82,36 116,71 25,24 50,50 72,56 24,5 57,-3 90,-11 48,-13 98,-27 138,-3 40,22 54,70 68,118 9,33 19,68 37,84 18,18 52,28 85,38 50,14 101,29 125,72 23,41 11,94 -2,144 -8,33 -16,68 -11,92 7,23 32,49 56,74 34,37 70,73 69,118 1,46 -35,84 -69,120 -24,25 -49,51 -56,74 -5,24 3,59 11,92 13,50 25,101 2,144 -25,43 -77,59 -127,72 -33,10 -66,20 -83,36 -18,18 -28,53 -37,86 -14,48 -28,96 -68,120 -40,22 -89,9 -138,-3 -33,-8 -66,-18 -90,-11 -23,5 -48,30 -72,55 -36,32 -72,68 -118,68zm-210 -174c11,0 20,1 30,4 36,9 67,38 96,66 29,28 58,57 84,56 27,0 56,-29 84,-57 29,-29 58,-58 94,-68 36,-10 76,1 115,11 37,10 78,21 100,8 22,-12 33,-52 44,-90 11,-40 24,-80 50,-107 26,-25 65,-36 104,-47 40,-11 83,-23 97,-50 14,-25 4,-68 -5,-108 -10,-39 -20,-80 -11,-115 9,-36 38,-67 68,-96 27,-29 56,-58 55,-84 0,0 0,-2 0,-2 1,-26 -28,-55 -55,-84 -28,-29 -59,-60 -68,-96 -10,-36 1,-76 11,-116 9,-41 20,-84 5,-109 -15,-26 -57,-37 -97,-50 -39,-11 -79,-23 -105,-48 -27,-26 -39,-67 -50,-107 -11,-37 -22,-76 -45,-89 -23,-12 -62,-2 -101,7 -39,10 -79,21 -115,11 -36,-9 -65,-38 -94,-68 -28,-27 -57,-56 -82,-56 -26,0 -56,27 -83,55 -29,29 -60,58 -97,67 -35,9 -77,-2 -115,-10 -41,-10 -84,-21 -109,-6 -26,16 -38,57 -50,97 -11,39 -22,78 -47,104 -26,27 -66,39 -106,50 -39,11 -78,23 -92,46 -12,22 -3,63 7,100 10,39 21,79 11,115 -10,36 -39,65 -68,93 -30,31 -60,61 -55,89 0,3 0,5 0,7 -5,29 25,58 56,90 28,29 57,58 67,93 10,36 -1,76 -11,115 -10,37 -21,78 -8,100 12,23 52,34 91,46 39,11 79,23 106,49 24,27 37,66 48,104 11,41 24,84 50,98 25,13 68,4 108,-6 32,-6 61,-12 88,-12z" id="id_103" style="fill: rgb(255, 255, 255);"></path>
    </g>
   </g>
  </g>
 </g>
</svg>