<svg xmlns="http://www.w3.org/2000/svg" xml:space="preserve" width="1.70666in" height="1.70666in" version="1.1" style="shape-rendering:geometricPrecision; text-rendering:geometricPrecision; image-rendering:optimizeQuality; fill-rule:evenodd; clip-rule:evenodd" viewBox="0 0 1707 1707" xmlns:xlink="http://www.w3.org/1999/xlink">
 <defs>
  <style type="text/css">
   
    .fil0 {fill:black}
   
  </style>
 </defs>
 <g id="Layer_x0020_1">
  <metadata id="CorelCorpID_0Corel-Layer"></metadata>
  <path class="fil0" d="M853 1533c-2,0 -4,0 -6,-1 -315,-98 -503,-328 -557,-682 -22,-147 -21,-334 4,-489 1,-8 7,-15 16,-18l537 -167c4,-1 9,-1 13,0l537 167c8,3 14,10 16,18 24,155 26,342 3,489 -54,354 -241,584 -556,682 -2,1 -4,1 -7,1zm-268 -643c-23,0 -31,-31 -11,-42l536 -310c26,-15 48,25 23,40l-536 309c-4,2 -8,3 -12,3zm0 281c-23,0 -31,-30 -11,-42l536 -309c26,-15 48,24 23,39l-536 309c-4,2 -8,3 -12,3zm268 536c-2,0 -4,-1 -6,-1 -408,-109 -659,-399 -723,-841 -48,-330 23,-623 26,-636 2,-7 8,-13 16,-16l681 -212c4,-1 9,-1 13,0l681 212c8,2 13,9 15,16 3,13 75,306 27,636 -65,442 -315,732 -724,841 -2,0 -4,1 -6,1zm-661 -1454c-13,59 -65,323 -23,607 63,425 293,694 684,800 392,-106 622,-375 685,-800 41,-284 -10,-548 -23,-607l-662 -206 -661 206zm145 129c-22,148 -23,323 -2,461 52,338 221,549 518,643 297,-94 467,-305 518,-643 22,-138 21,-313 -1,-461l-517 -161 -516 161z" id="id_101" style="fill: rgb(255, 255, 255);"></path>
 </g>
</svg>