<svg xmlns="http://www.w3.org/2000/svg" viewBox="0 0 64 64"><g id="Layer_32" data-name="Layer 32"><path d="M32.49,19.3C25.05,22,24.74,32.88,32,36c7.2,3.34,15.06-4.09,12.14-11.47A9,9,0,0,0,32.49,19.3Zm5.74,15c-8.8,3.05-13.62-9.58-5-13.16C42,18.15,46.84,30.67,38.23,34.33Z" id="id_105" style="fill: rgb(255, 255, 255);"></path><path d="M35.72,57.23h-19a1,1,0,0,0,0,2h19A1,1,0,0,0,35.72,57.23Z" id="id_106" style="fill: rgb(255, 255, 255);"></path><path d="M9.46,57.23H4a1,1,0,0,0,0,2H9.46A1,1,0,0,0,9.46,57.23Z" id="id_107" style="fill: rgb(255, 255, 255);"></path><path d="M48.73,8.58a4.42,4.42,0,0,0-.24-1.11h0c-1.9-4.74-9-2.7-8.05,2.31-14.59-4-27.84,11-21.92,25.08l-2.11.81A1,1,0,0,0,15.83,37l2.6,6.81a1,1,0,0,0,1.29.57l2.11-.8.91,2.38L10.56,50.57A1,1,0,0,0,10,51.86l1.51,4,1.06,2.76a1,1,0,0,0,1.86-.71l-.69-1.83L42.35,45.13C56.1,40,58.51,21,46.56,12.65a4,4,0,0,0,1.87-2.07c6.09,2.1,10.57,9,10.57,17.17a1,1,0,0,0,2,0C61,18.55,55.78,10.82,48.73,8.58ZM21.12,41.67l-1.18.45-1.88-4.94,1.18-.45C19.31,36.93,21,41.31,21.12,41.67ZM13,54.18l-.8-2.1,11.24-4.29.81,2.1ZM51.23,21.83a16.63,16.63,0,0,1-9.6,21.43L26.12,49.18c-.87-2.3-4.57-12-5.37-14.1C14.21,21,28.26,6.43,42.39,12.56a4.07,4.07,0,0,0,.66.33A16.57,16.57,0,0,1,51.23,21.83ZM45.34,11a2.21,2.21,0,0,1-1.5,0c-.19-.09-.37-.2-.57-.28-2.86-2.37,1.5-6,3.28-2.7-1-.06-2.89-.66-3,.84.09,1.46,1.93.86,2.89,1.17A2.13,2.13,0,0,1,45.34,11Z" id="id_108" style="fill: rgb(255, 255, 255);"></path></g></svg>