<?xml version="1.0" encoding="UTF-8" standalone="no"?> <svg width="24" height="24" viewBox="0 0 24 24" fill="none" xmlns="http://www.w3.org/2000/svg">
<path fill-rule="evenodd" clip-rule="evenodd" d="M12.6285 6.63727C12.9214 6.34437 12.9214 5.8695 12.6285 5.57661C12.3356 5.28371 11.8607 5.28371 11.5678 5.5766L5.67475 11.4696C5.5341 11.6103 5.45508 11.801 5.45508 11.9999C5.45508 12.1989 5.5341 12.3896 5.67475 12.5303L11.5678 18.4233C11.8607 18.7162 12.3356 18.7162 12.6285 18.4233C12.9214 18.1304 12.9214 17.6555 12.6285 17.3626L7.26574 11.9999L12.6285 6.63727ZM18.3245 6.63727C18.6174 6.34437 18.6174 5.8695 18.3245 5.57661C18.0316 5.28371 17.5568 5.28371 17.2639 5.5766L11.3708 11.4696C11.2301 11.6103 11.1511 11.801 11.1511 11.9999C11.1511 12.1989 11.2301 12.3896 11.3708 12.5303L17.2639 18.4233C17.5568 18.7162 18.0316 18.7162 18.3245 18.4233C18.6174 18.1304 18.6174 17.6555 18.3245 17.3626L12.9618 11.9999L18.3245 6.63727Z" fill="#3B434B"/>
</svg>
