<?xml version="1.0" encoding="UTF-8" standalone="no"?> <svg width="24" height="24" viewBox="0 0 24 24" fill="none" xmlns="http://www.w3.org/2000/svg">
<path fill-rule="evenodd" clip-rule="evenodd" d="M5.67548 17.3626C5.38259 17.6555 5.38259 18.1304 5.67548 18.4233C5.96837 18.7162 6.44324 18.7162 6.73614 18.4233L12.6292 12.5303C12.7699 12.3896 12.8489 12.1989 12.8489 11.9999C12.8489 11.801 12.7699 11.6103 12.6292 11.4696L6.73614 5.5766C6.44324 5.28371 5.96837 5.28371 5.67548 5.5766C5.38259 5.8695 5.38259 6.34437 5.67548 6.63727L11.0382 11.9999L5.67548 17.3626ZM11.3715 17.3626C11.0786 17.6555 11.0786 18.1304 11.3715 18.4233C11.6644 18.7162 12.1393 18.7162 12.4322 18.4233L18.3252 12.5303C18.4659 12.3896 18.5449 12.1989 18.5449 11.9999C18.5449 11.801 18.4659 11.6103 18.3252 11.4696L12.4322 5.5766C12.1393 5.28371 11.6644 5.28371 11.3715 5.5766C11.0786 5.8695 11.0786 6.34437 11.3715 6.63726L16.7343 11.9999L11.3715 17.3626Z" fill="#3B434B"/>
</svg>
