<svg xmlns="http://www.w3.org/2000/svg" viewBox="0 0 64 64"><g id="Layer_32" data-name="Layer 32"><path d="M35.71,20.71a7,7,0,1,0,2.52,13.62C45.5,31.44,43.43,20.77,35.71,20.71Z"/><path d="M35.72,57.23h-19a1,1,0,0,0,0,2h19A1,1,0,0,0,35.72,57.23Z"/><path d="M9.46,57.23H4a1,1,0,0,0,0,2H9.46A1,1,0,0,0,9.46,57.23Z"/><path d="M48.73,8.58a4.42,4.42,0,0,0-.24-1.11h0c-1.9-4.74-9-2.7-8.05,2.31-14.59-4-27.84,11-21.92,25.08l-2.11.81A1,1,0,0,0,15.83,37l2.6,6.81a1,1,0,0,0,1.29.57l2.11-.8.91,2.38L10.56,50.57A1,1,0,0,0,10,51.86l1.51,4,1.06,2.76a1,1,0,0,0,1.86-.71l-.69-1.83L42.35,45.13C56.1,40,58.51,21,46.56,12.65a4,4,0,0,0,1.87-2.07c6.09,2.1,10.57,9,10.57,17.17a1,1,0,0,0,2,0C61,18.55,55.78,10.82,48.73,8.58ZM21.12,41.67l-1.18.45-1.88-4.94,1.18-.45C19.31,36.93,21,41.31,21.12,41.67ZM13,54.18l-.8-2.1,11.24-4.29.81,2.1Zm25.93-18c-7.35,2.94-14.83-5-11.48-12.14,3.2-7.3,13.91-7,16.7.47A9,9,0,0,1,38.94,36.2ZM45.34,11a2.21,2.21,0,0,1-1.5,0c-.19-.09-.37-.2-.57-.28-2.86-2.37,1.5-6,3.28-2.7-1-.06-2.89-.66-3,.84.09,1.46,1.93.86,2.89,1.17A2.13,2.13,0,0,1,45.34,11Z"/></g></svg>